<svg xmlns="http://www.w3.org/2000/svg"
 xmlns:xlink="http://www.w3.org/1999/xlink"
 width="26px" height="43px"  viewBox="0 0 26 43">
<path fill-rule="evenodd"  fill="#ffffff"
 d="M2.584137,22.888123 C2.584137,22.888123 20.549988,40.4205 20.549988,40.4205 C21.338135,41.188354 22.61554,41.188354 23.406189,40.4205 C24.194244,39.653595 24.194244,38.406494 23.406189,37.638763 C23.406189,37.638763 6.8652344,21.496979 6.8652344,21.496979 C6.8652344,21.496979 23.403809,5.3563232 23.403809,5.3563232 C24.191956,4.5884705 24.191956,3.3415222 23.403809,2.5720215 C22.61554,1.8042908 21.336548,1.8042908 20.548279,2.5720215 C20.548279,2.5720215 2.5818481,20.104645 2.5818481,20.104645 C1.8056946,20.86377 1.8056946,22.130402 2.584137,22.888123 C2.584137,22.888123 2.584137,22.888123 2.584137,22.888123 ZM2.584137,22.888123 C2.584137,22.888123 "/>
</svg>