<svg xmlns="http://www.w3.org/2000/svg"
 xmlns:xlink="http://www.w3.org/1999/xlink"
 width="26px" height="43px"  viewBox="0 0 26 43">
<path fill-rule="evenodd"  fill="#ffffff"
 d="M23.415771,22.888123 C23.415771,22.888123 5.449951,40.4205 5.449951,40.4205 C4.661743,41.188354 3.3843994,41.188354 2.59375,40.4205 C1.8056641,39.653595 1.8056641,38.406494 2.59375,37.638763 C2.59375,37.638763 19.134644,21.496979 19.134644,21.496979 C19.134644,21.496979 2.5960693,5.3563232 2.5960693,5.3563232 C1.8079834,4.5884705 1.8079834,3.3415222 2.5960693,2.5720215 C3.3843994,1.8042908 4.66333,1.8042908 5.45166,2.5720215 C5.45166,2.5720215 23.41809,20.104645 23.41809,20.104645 C24.194214,20.86377 24.194214,22.130402 23.415771,22.888123 C23.415771,22.888123 23.415771,22.888123 23.415771,22.888123 ZM23.415771,22.888123 C23.415771,22.888123 "/>
</svg>